<svg viewBox="0 0 658.3405672671 547.5740065632" fill="none" xmlns="http://www.w3.org/2000/svg" id="giftx">
  <style>
  #giftx {
      path, polygon {stroke: #F4F2ED;}
      @media (prefers-color-scheme: light) {
          path, polygon {stroke: #231F20;}
      }
  }
  </style>
  <path d="M250.1349411889,527.0634280704l-167.9332964848-.1493779582c-1.7485961535-.0015553897-2.777172598-1.9649246865-1.7829758956-3.40338353l127.3580864352-184.2687320146c.8628327992-1.248394274,2.7078570874-1.2480678857,3.570248146.0006315838l83.9876504271,121.6099511778c.5127003706.7423647014.5125143213,1.7245327116-.0004672605,2.4667031211l-43.4124403775,62.808158795c-.4055464109.5867355797-1.0735545925.9366832669-1.7868049899.9360488252Z" style="fill: none; stroke-miterlimit: 10; stroke-width: 41px;"/>
  <path d="M188.2841195724,311.0175611778l-146.86498496,212.4924090501c-.9942882946,1.4385914728.0345726011,3.4021137195,1.7833301674,3.4033837531l206.9327005022.1502846879c.7131253193.0005179066,1.3809757118-.3494166446,1.7864508901-.9360492971l43.4125729437-62.8083645652c.5129814504-.7421703845.5131674564-1.7243382755.0004671518-2.4667029068l-103.4802884859-149.8343291727c-.8623910655-1.2486995221-2.7074154272-1.2490258926-3.5702482093-.0006315493Z" style="fill: none; stroke-miterlimit: 10; stroke-width: 41px;"/>
  <path d="M362.5869526926,58.8266084973l25.8341594323-37.3782924547c.4055270791-.5867390344,1.0735162228-.9367025959,1.7867584926-.936093605l206.9330061328.176686559c1.7486561711.0014930631,2.7772892235,1.9649450447,1.7830223929,3.4034283098l-128.4498704353,185.8384322407c-.8589008335,1.2426387337-2.6930914748,1.2492064858-3.5608692914.0127505322l-104.3172951297-148.6368263449c-.5217115127-.7433622912-.525267514-1.7329928984-.008911594-2.480085237Z" style="fill: none; stroke-miterlimit: 10; stroke-width: 41px;"/>
  <path d="M382.2363577582,86.8241208038l45.1846030871-65.3755858814c.4056109435-.5868603741,1.0737859947-.9368394782,1.7871756353-.9360932087l167.9337062017.1756737029c1.7484660079.0018290521,2.7767641376,1.9651008183,1.7826052502,3.4034279135l-128.4504177743,185.8392241186c-.8589008339,1.2426387343-2.6930914763,1.2492064857-3.5608692924.0127505309l-84.6678915145-120.6393119401c-.5217115118-.7433622911-.5252675127-1.7329928975-.0089115931-2.4800852357Z" style="fill: none; stroke-miterlimit: 10; stroke-width: 41px;"/>
  <polygon points="269.2740572104 20.5112498335 57.0689471152 20.6653171104 407.068769261 527.0644413229 619.2738793562 526.8832532591 269.2740572104 20.5112498335" style="fill: none; stroke-miterlimit: 10; stroke-width: 41px;"/>
</svg>